<svg width="32" height="31" viewBox="0 0 32 31" fill="none" xmlns="http://www.w3.org/2000/svg">
<path d="M16.0063 8.53696C12.0313 8.53696 8.825 11.643 8.825 15.4938C8.825 19.3446 12.0313 22.4506 16.0063 22.4506C19.9813 22.4506 23.1875 19.3446 23.1875 15.4938C23.1875 11.643 19.9813 8.53696 16.0063 8.53696ZM16.0063 20.0166C13.4375 20.0166 11.3375 17.9883 11.3375 15.4938C11.3375 12.9993 13.4313 10.9709 16.0063 10.9709C18.5813 10.9709 20.675 12.9993 20.675 15.4938C20.675 17.9883 18.575 20.0166 16.0063 20.0166ZM25.1563 8.25239C25.1563 9.15454 24.4063 9.87505 23.4813 9.87505C22.55 9.87505 21.8063 9.14848 21.8063 8.25239C21.8063 7.3563 22.5563 6.62973 23.4813 6.62973C24.4063 6.62973 25.1563 7.3563 25.1563 8.25239ZM29.9125 9.89927C29.8063 7.72563 29.2938 5.80024 27.65 4.21392C26.0125 2.62759 24.025 2.1311 21.7813 2.02212C19.4688 1.89497 12.5375 1.89497 10.225 2.02212C7.9875 2.12505 6 2.62153 4.35625 4.20786C2.7125 5.79419 2.20625 7.71958 2.09375 9.89321C1.9625 12.1334 1.9625 18.8481 2.09375 21.0883C2.2 23.262 2.7125 25.1873 4.35625 26.7737C6 28.36 7.98125 28.8565 10.225 28.9655C12.5375 29.0926 19.4688 29.0926 21.7813 28.9655C24.025 28.8625 26.0125 28.3661 27.65 26.7737C29.2875 25.1873 29.8 23.262 29.9125 21.0883C30.0438 18.8481 30.0438 12.1395 29.9125 9.89927ZM26.925 23.492C26.4375 24.6788 25.4938 25.593 24.2625 26.0713C22.4188 26.7797 18.0438 26.6163 16.0063 26.6163C13.9688 26.6163 9.5875 26.7737 7.75 26.0713C6.525 25.5991 5.58125 24.6848 5.0875 23.492C4.35625 21.7059 4.525 17.4676 4.525 15.4938C4.525 13.52 4.3625 9.27563 5.0875 7.49556C5.575 6.30884 6.51875 5.39458 7.75 4.91626C9.59375 4.20786 13.9688 4.37134 16.0063 4.37134C18.0438 4.37134 22.425 4.21392 24.2625 4.91626C25.4875 5.38852 26.4313 6.30278 26.925 7.49556C27.6563 9.28169 27.4875 13.52 27.4875 15.4938C27.4875 17.4676 27.6563 21.712 26.925 23.492Z" fill="white"/>
</svg>
