<svg width="1448" height="174" viewBox="0 0 1448 174" fill="none" xmlns="http://www.w3.org/2000/svg">
<g clip-path="url(#clip0_424_10046)">
<path d="M342.304 47.2416V191H318.153V54.9087L326.012 55.292L259.116 191H232.089L165.194 55.4837L173.053 55.1003V191H148.901V47.2416H187.62L252.024 180.074H239.373L303.585 47.2416H342.304ZM429.28 191V122.379H454.581V191H429.28ZM361.426 47.2416H389.986L448.639 120.846H435.03L493.683 47.2416H522.243L449.981 137.905L433.88 138.097L361.426 47.2416Z" fill="#FFE700"/>
<path d="M614.563 58.9339H639.865V191H614.563V58.9339ZM555.143 47.2416H699.285V69.4762H555.143V47.2416ZM718.487 47.2416H743.788V191H718.487V47.2416ZM927.57 134.072C926.292 145.828 922.139 156.242 915.111 165.315C908.211 174.26 899.138 181.224 887.893 186.208C876.648 191.192 863.805 193.683 849.366 193.683C833.265 193.683 819.144 190.553 807.005 184.291C794.865 178.03 785.409 169.34 778.636 158.223C771.864 146.978 768.477 133.944 768.477 119.121C768.477 104.298 771.864 91.3275 778.636 80.2102C785.409 68.9651 794.865 60.2118 807.005 53.9503C819.144 47.6888 833.265 44.5581 849.366 44.5581C863.805 44.5581 876.648 47.0499 887.893 52.0335C899.138 57.0171 908.211 63.9814 915.111 72.9264C922.139 81.8714 926.292 92.2859 927.57 104.17H902.077C900.671 96.5028 897.605 89.9218 892.876 84.4271C888.276 78.9323 882.27 74.7154 874.859 71.7763C867.447 68.7095 858.886 67.1761 849.174 67.1761C837.929 67.1761 828.153 69.2845 819.847 73.5014C811.669 77.7183 805.344 83.7242 800.871 91.5192C796.399 99.3141 794.162 108.515 794.162 119.121C794.162 129.727 796.399 138.927 800.871 146.722C805.344 154.517 811.669 160.523 819.847 164.74C828.153 168.957 837.929 171.065 849.174 171.065C858.886 171.065 867.447 169.596 874.859 166.657C882.27 163.718 888.276 159.501 892.876 154.006C897.605 148.384 900.671 141.739 902.077 134.072H927.57ZM950.784 191V47.2416H976.086V169.724L968.419 164.932L1064.64 47.2416H1092.05L973.402 191H950.784ZM1019.21 118.737L1037.04 101.295L1094.16 191H1065.22L1019.21 118.737ZM1225.08 108.578V129.663H1124.64V108.578H1225.08ZM1141.32 119.121L1131.16 183.333L1119.08 169.149H1230.64V191H1105.28L1116.78 119.121L1105.28 47.2416H1229.68V69.0928H1119.08L1131.16 54.9087L1141.32 119.121ZM1300.79 58.9339H1326.09V191H1300.79V58.9339ZM1241.36 47.2416H1385.51V69.4762H1241.36V47.2416Z" fill="white"/>
</g>
<g clip-path="url(#clip1_424_10046)">
<path fill-rule="evenodd" clip-rule="evenodd" d="M97.2714 19.5386L10.1401 56.3194L97.2714 96.5699V79.3117C86.7089 79.3117 78.1462 71.0195 78.1462 60.7905C78.1462 50.5615 86.7089 42.2693 97.2714 42.2693V19.5386Z" fill="#FFE700"/>
<path fill-rule="evenodd" clip-rule="evenodd" d="M101.711 187.913L3.52653e-06 144.978L0 62.4741L101.711 110.882V129.843C91.5523 130.283 83.4554 138.398 83.4554 148.345C83.4554 158.292 91.5523 166.407 101.711 166.848V187.913Z" fill="white"/>
</g>
<defs>
<clipPath id="clip0_424_10046">
<rect width="1316" height="174" fill="white" transform="translate(132)"/>
</clipPath>
<clipPath id="clip1_424_10046">
<rect width="102" height="136" fill="white" transform="translate(0 19)"/>
</clipPath>
</defs>
</svg>
