<svg width="83" height="32" viewBox="0 0 83 32" fill="none" xmlns="http://www.w3.org/2000/svg">
<path d="M22.0928 18.9692H23.9408V28.6152H22.0928V18.9692ZM17.7528 18.1152H28.2808V19.7392H17.7528V18.1152ZM29.6833 18.1152H31.5313V28.6152H29.6833V18.1152ZM44.9546 24.4572C44.8613 25.3159 44.5579 26.0766 44.0446 26.7392C43.5406 27.3926 42.8779 27.9012 42.0566 28.2652C41.2353 28.6292 40.2973 28.8112 39.2426 28.8112C38.0666 28.8112 37.0353 28.5826 36.1486 28.1252C35.2619 27.6679 34.5713 27.0332 34.0766 26.2212C33.5819 25.3999 33.3346 24.4479 33.3346 23.3652C33.3346 22.2826 33.5819 21.3352 34.0766 20.5232C34.5713 19.7019 35.2619 19.0626 36.1486 18.6052C37.0353 18.1479 38.0666 17.9192 39.2426 17.9192C40.2973 17.9192 41.2353 18.1012 42.0566 18.4652C42.8779 18.8292 43.5406 19.3379 44.0446 19.9912C44.5579 20.6446 44.8613 21.4052 44.9546 22.2732H43.0926C42.9899 21.7132 42.7659 21.2326 42.4206 20.8312C42.0846 20.4299 41.6459 20.1219 41.1046 19.9072C40.5633 19.6832 39.9379 19.5712 39.2286 19.5712C38.4073 19.5712 37.6933 19.7252 37.0866 20.0332C36.4893 20.3412 36.0273 20.7799 35.7006 21.3492C35.3739 21.9186 35.2106 22.5906 35.2106 23.3652C35.2106 24.1399 35.3739 24.8119 35.7006 25.3812C36.0273 25.9506 36.4893 26.3892 37.0866 26.6972C37.6933 27.0052 38.4073 27.1592 39.2286 27.1592C39.9379 27.1592 40.5633 27.0519 41.1046 26.8372C41.6459 26.6226 42.0846 26.3146 42.4206 25.9132C42.7659 25.5026 42.9899 25.0172 43.0926 24.4572H44.9546ZM46.6501 28.6152V18.1152H48.4981V27.0612L47.9381 26.7112L54.9661 18.1152H56.9681L48.3021 28.6152H46.6501ZM51.6481 23.3372L52.9501 22.0632L57.1221 28.6152H55.0081L51.6481 23.3372ZM66.6846 22.5952V24.1352H59.3486V22.5952H66.6846ZM60.5666 23.3652L59.8246 28.0552L58.9426 27.0192H67.0906V28.6152H57.9346L58.7746 23.3652L57.9346 18.1152H67.0206V19.7112H58.9426L59.8246 18.6752L60.5666 23.3652ZM72.2139 18.9692H74.0619V28.6152H72.2139V18.9692ZM67.8739 18.1152H78.4019V19.7392H67.8739V18.1152Z" fill="black"/>
<mask id="path-2-outside-1_401_7062" maskUnits="userSpaceOnUse" x="17.6848" y="3" width="29" height="12" fill="black">
<rect fill="white" x="17.6848" y="3" width="29" height="12"/>
<path d="M32.9868 3.5V14H31.2228V4.06L31.7968 4.088L26.9108 14H24.9368L20.0508 4.102L20.6248 4.074V14H18.8608V3.5H21.6888L26.3928 13.202H25.4688L30.1588 3.5H32.9868ZM39.3394 14V8.988H41.1874V14H39.3394ZM34.3834 3.5H36.4694L40.7534 8.876H39.7594L44.0434 3.5H46.1294L40.8514 10.122L39.6754 10.136L34.3834 3.5Z"/>
</mask>
<path d="M32.9868 3.5V14H31.2228V4.06L31.7968 4.088L26.9108 14H24.9368L20.0508 4.102L20.6248 4.074V14H18.8608V3.5H21.6888L26.3928 13.202H25.4688L30.1588 3.5H32.9868ZM39.3394 14V8.988H41.1874V14H39.3394ZM34.3834 3.5H36.4694L40.7534 8.876H39.7594L44.0434 3.5H46.1294L40.8514 10.122L39.6754 10.136L34.3834 3.5Z" fill="#FFE700"/>
<path d="M32.9868 3.5H33.1868V3.3H32.9868V3.5ZM32.9868 14V14.2H33.1868V14H32.9868ZM31.2228 14H31.0228V14.2H31.2228V14ZM31.2228 4.06L31.2326 3.86024L31.0228 3.85001V4.06H31.2228ZM31.7968 4.088L31.9762 4.17643L32.1109 3.90309L31.8066 3.88824L31.7968 4.088ZM26.9108 14V14.2H27.0352L27.0902 14.0884L26.9108 14ZM24.9368 14L24.7575 14.0885L24.8125 14.2H24.9368V14ZM20.0508 4.102L20.0411 3.90224L19.7365 3.91709L19.8715 4.19053L20.0508 4.102ZM20.6248 4.074H20.8248V3.86401L20.6151 3.87424L20.6248 4.074ZM20.6248 14V14.2H20.8248V14H20.6248ZM18.8608 14H18.6608V14.2H18.8608V14ZM18.8608 3.5V3.3H18.6608V3.5H18.8608ZM21.6888 3.5L21.8688 3.41274L21.8141 3.3H21.6888V3.5ZM26.3928 13.202V13.402H26.7121L26.5728 13.1147L26.3928 13.202ZM25.4688 13.202L25.2888 13.115L25.15 13.402H25.4688V13.202ZM30.1588 3.5V3.3H30.0334L29.9788 3.41295L30.1588 3.5ZM32.7868 3.5V14H33.1868V3.5H32.7868ZM32.9868 13.8H31.2228V14.2H32.9868V13.8ZM31.4228 14V4.06H31.0228V14H31.4228ZM31.2131 4.25976L31.7871 4.28776L31.8066 3.88824L31.2326 3.86024L31.2131 4.25976ZM31.6174 3.99957L26.7314 13.9116L27.0902 14.0884L31.9762 4.17643L31.6174 3.99957ZM26.9108 13.8H24.9368V14.2H26.9108V13.8ZM25.1162 13.9115L20.2302 4.01347L19.8715 4.19053L24.7575 14.0885L25.1162 13.9115ZM20.0606 4.30176L20.6346 4.27376L20.6151 3.87424L20.0411 3.90224L20.0606 4.30176ZM20.4248 4.074V14H20.8248V4.074H20.4248ZM20.6248 13.8H18.8608V14.2H20.6248V13.8ZM19.0608 14V3.5H18.6608V14H19.0608ZM18.8608 3.7H21.6888V3.3H18.8608V3.7ZM21.5089 3.58725L26.2129 13.2893L26.5728 13.1147L21.8688 3.41274L21.5089 3.58725ZM26.3928 13.002H25.4688V13.402H26.3928V13.002ZM25.6489 13.289L30.3389 3.58704L29.9788 3.41295L25.2888 13.115L25.6489 13.289ZM30.1588 3.7H32.9868V3.3H30.1588V3.7ZM39.3394 14H39.1394V14.2H39.3394V14ZM39.3394 8.988V8.788H39.1394V8.988H39.3394ZM41.1874 8.988H41.3874V8.788H41.1874V8.988ZM41.1874 14V14.2H41.3874V14H41.1874ZM34.3834 3.5V3.3H33.9681L34.2271 3.6247L34.3834 3.5ZM36.4694 3.5L36.6258 3.37536L36.5658 3.3H36.4694V3.5ZM40.7534 8.876V9.076H41.1685L40.9098 8.75136L40.7534 8.876ZM39.7594 8.876L39.603 8.75136L39.3443 9.076H39.7594V8.876ZM44.0434 3.5V3.3H43.9471L43.887 3.37536L44.0434 3.5ZM46.1294 3.5L46.2858 3.62466L46.5446 3.3H46.1294V3.5ZM40.8514 10.122L40.8538 10.322L40.9487 10.3209L41.0078 10.2467L40.8514 10.122ZM39.6754 10.136L39.5191 10.2607L39.58 10.3371L39.6778 10.336L39.6754 10.136ZM39.5394 14V8.988H39.1394V14H39.5394ZM39.3394 9.188H41.1874V8.788H39.3394V9.188ZM40.9874 8.988V14H41.3874V8.988H40.9874ZM41.1874 13.8H39.3394V14.2H41.1874V13.8ZM34.3834 3.7H36.4694V3.3H34.3834V3.7ZM36.313 3.62464L40.597 9.00064L40.9098 8.75136L36.6258 3.37536L36.313 3.62464ZM40.7534 8.676H39.7594V9.076H40.7534V8.676ZM39.9158 9.00064L44.1998 3.62464L43.887 3.37536L39.603 8.75136L39.9158 9.00064ZM44.0434 3.7H46.1294V3.3H44.0434V3.7ZM45.973 3.37534L40.695 9.99734L41.0078 10.2467L46.2858 3.62466L45.973 3.37534ZM40.849 9.92201L39.673 9.93601L39.6778 10.336L40.8538 10.322L40.849 9.92201ZM39.8318 10.0113L34.5398 3.3753L34.2271 3.6247L39.5191 10.2607L39.8318 10.0113Z" fill="#D3D3B6" mask="url(#path-2-outside-1_401_7062)"/>
<path d="M15.2058 3.05549L15.2058 2.90473L15.0669 2.96336L1.53582 8.67523L1.32733 8.76324L1.53277 8.85814L15.0638 15.1088L15.2058 15.1744L15.2058 15.0181L15.2058 12.3379L15.2058 12.2379L15.1058 12.2379C13.5176 12.2379 12.2357 10.992 12.2357 9.4617C12.2357 7.93142 13.5176 6.68545 15.1058 6.68545L15.2058 6.68545L15.2058 6.58545L15.2058 3.05549Z" fill="#FFE700" stroke="#D3D3B6" stroke-width="0.2"/>
<path fill-rule="evenodd" clip-rule="evenodd" d="M15.7953 29.2032L-2.85002e-07 22.5356L-8.32654e-07 9.7232L15.7953 17.2407L15.7953 20.1852C14.2176 20.2535 12.9602 21.5138 12.9602 23.0585C12.9602 24.6032 14.2176 25.8635 15.7953 25.9319L15.7953 29.2032Z" fill="black"/>
</svg>
